<?xml version="1.0" encoding="utf-8"?>
<!-- Generator: Adobe Illustrator 16.0.0, SVG Export Plug-In . SVG Version: 6.00 Build 0)  -->
<!DOCTYPE svg PUBLIC "-//W3C//DTD SVG 1.1//EN" "http://www.w3.org/Graphics/SVG/1.1/DTD/svg11.dtd">
<svg version="1.1" id="Layer_1" xmlns="http://www.w3.org/2000/svg" xmlns:xlink="http://www.w3.org/1999/xlink" x="0px" y="0px"
	 width="1683.78px" height="1190.55px" viewBox="0 0 1683.78 1190.55" enable-background="new 0 0 1683.78 1190.55"
	 xml:space="preserve">
<path d="M1124.629,945.714V948l1.037,0.833c0,0-0.666,0.668,0,1.334c0.668,0.666,0.668,0.666,0.668,0.666s-0.834,0.168,0,0.834
	c0.832,0.666-0.168-0.334,0.832,0.666s1,1,1,1V954l-2.5,0.667l-1.037,1c0,0-0.629-0.166-1.129,0s-1.666,0-1.666,0l-0.834,0.074
	l-1.666,0.926H1118h-2.166h-1.168h-1c0,0-1.332-0.834-1.832-0.834s-1.168-0.333-1.168-0.333l-0.832-0.333l-0.668-0.167l-1.166-0.333
	l-1-0.667l-1-0.833c0,0,0.5-1.286,0-1.977s0.5-0.856,0-1.523s-0.834-1.667-0.834-1.667s0.834-0.666,0-1.333
	c-0.832-0.667-1.332-0.953-1.332-0.953v-2.047v-1c-0.168-1,0-2.166,0-2.166l1.332-12.5l0.168-1.777v-1.891c0,0,0,0-0.334-1
	s-1.24-1.833-1.24-1.833v-1.667l-1.094-1v-1.166l-1.166-1.167v-1.167l-1.25-1.333c0,0,0.75-0.5,0-2.25s-1.5-3-1.5-3v-1.25V900
	c0,0-1.25-1.25,0-2s0.25-0.75,1-2.25s0.75-2.75,0.75-2.75s0-0.75,0.25-2.25s-0.25-2.75,0-3.5s-0.25-1.75,0-2.5s0.25-2.25,0.25-2.25
	l0.75-2.75c0,0,0-2,1-2.5s0.25-1.5,1-1.75s0.75-1.5,0.75-1.5s0-0.75,0.25-1.75s0-1.5,0.25-2.5s0-1.5,0.25-2.5s-0.5-1.75-0.25-2.5
	s-0.75-3.25-0.75-3.25s-0.5-1.5-0.75-2.25s-0.25-0.75-0.25-0.75l-3-2.75l-2.056-2.5v-2.5l-1.444-2h-1.25v-1.5l-1.25-2.25v-3
	c0,0-0.5-1.5-1.75-1.25s-2.5-0.028-2.5-0.028l-1.25-2.472l-2-4.5c0,0-1.5,0-1.5-2s0.5-3,0-3.75s-0.5-1.25,0-3s0.25-2.75,1-3.25
	s0,1,0.75-0.5s1.5-2.75,1.5-2.75l1.25-2c0,0,0-0.25,0.5-2.25s0.5-4.75,0.5-4.75s0-1.75,0.75-2.25s1-1.75,1-1.75s0-0.25,0.5-1.5
	s0.75-2.5,0.75-2.5l1-6.5c0,0-0.25-2.25,0-3s-0.25-2.25,0-3.25s-0.5-2-0.25-3.25s0.25-1.75,0-3.25s-1.5-3-1.5-3v-2.75v-3.25
	c0,0,0-0.5,0-2s-1.5-3.25-1.5-3.25s-0.5-0.25-0.75-1.25s-1-2.75-1-2.75H1089c0,0-1-1-1.5-2s-2-1.75-2.625-2s-2.125-0.75-2.875-1.5
	s-1-2-1.75-2s-1.75,0-1.75,0l-1.5-1.75c0,0-4-3.416-4-4.416s3,0.001,0-2.333s-5.333-4.667-5.333-4.667s-1,2.333-1.333,0
	c-0.334-2.333-2.668-1.999-2.334-4.333s-0.398-2.334-0.032-3.667s0.423-1.667-0.105-3.667s1.195-1.666,0-3.666s-1.195-2-1.195-2
	s-1.667-1.667-2-2.667s-1.667-0.667-1.667-2.667s1.333-4.667,0-6s-2.333-4-2.333-4s0.667-0.999,0-2.666s-0.334,0-0.667-1.667
	s0-3,0-3s-1.666,0.666-1.666-1.667s1-3,0-5s-2.668-3.999-2.334-5.666s-0.087-2.668-0.043-4.334c0.043-1.666-0.051-1.333-0.004-3.333
	s0.259-2.001-0.014-3.667s-0.272-1.666-0.272-1.666s-1.334-1.334-1.667-2.667s0-2.667,0-2.667l-2-2.333h-1.666
	c0,0,1.333-2.333,0-3.333c-1.334-1-2.334-1.666-2.334-3s0-3.667,0-3.667l-2-1.667l-2.333-1.666l-2-2.667H1035
	c0,0-3.333-2.999-4.333-3.333s-4-1.667-4-1.667s-4.001-2.334-4.667-3.667s-0.666-1.333-0.666-1.333s-1.334-1.333-2.334-2.333
	s-1-1-1-1l-5.5-4.501c0,0-2,2-4.5,0s-3.5-2-5-2.5s0,3-4,0s-5-4-8.5-5s-3-2-6-3.5s-5-3.5-7.5-5s0,1-2.5-1.5s1-0.5-2.5-2.5
	s-3.5-2-3.5-2l-4-3.5v-2.5L959,606l-3.5-2.5h-2H951c0,0-4,1-6.5,0s-6-3-6-3L935,596l-4-3.5c0,0,2.5-1.5,0-3s-2.5-1.5-2.5-1.5l-3-6
	c-2-2.5-2-2.5-2-2.5l-5-5.5H916l-2.5-4.5l-4-3.5l-5-3.5v-2l-3.5-3c0,0,2.5-0.5,0-2s-4-4-4-4s-1-2-2.5-3s-1.5-1-1.5-1s-3-6.5-4.5-7.5
	s-5-5-5-5s-1.5-2.5-3-3.5s-1.5-2.5-3-4S873,524,873,524l-4-2.5c0,0-0.5-2-2.5-2.5s2.5,3-2-0.5S860,515,860,515s-1-4-2.5-5
	s-5-6.5-5-6.5v-2c0,0-1-1-3-3.5s-2-2.5-2-2.5l-3-4v-2L842,486l-12.333-7.999c-0.667-4,0-1.333-0.667-4s-0.667-2.667-0.667-2.667
	L825,466.001c0,0,3.333-1.334,0-2.667s-6-4-6-4h-3.333v-3.333l-6-3.334c0,0-2.667-2-4-4s-1.333-2-1.333-2s-2.667-3.999-4-6.666
	s-4-6.667-4-6.667h-4L789,428.001l-3.333-4.667c0,0,5.333-2.001,0-2.667s-5.333-0.666-5.333-0.666l-8-7.334c0,0-0.667,3.333-3.333,0
	s-2.667-3.333-2.667-3.333l-6-6.667v-2.666l-4.667-4v-4H753c0,0,2.667-3.334,0-5.334s-2.667-2-2.667-2l-6-6L741,375.334
	c0,0,3.333,0,0-2s-3.333-2-3.333-2L733,366.001c0,0-1.333-2.001-3.333-5.334S725,354.001,725,354.001l-9.333-4l-5.333-2.667H705
	l-4.667-4l-6.667-4h-3.333c0,0-4-5.333-7.333-6s-6.667-2.667-6.667-2.667h-10.667c0,0-5.333,4-7.333,0s-5.333-6-5.333-6
	s5.333-2.666,0-4.666s-8-4.667-8-4.667l-6-3.333c0,0-2-2-4-2.667s-2-0.667-2-0.667s-2.667-1.334-4,0s-1.333,1.334-1.333,1.334
	l-4.667,2l-8-3.927v-4.073v-4v-5.334h-3.333L606.5,291v-1.5L604,286h-2.5v-4.5H599c0,0-3-3.5,0-3l-3-0.5c0,0,2.5-2-3.5,0s-6,2-6,2
	s-3.5-1-5.5,0s-4-0.5-6.5,0s3,0.5-2.5,0.5s-5.5,0-5.5,0l-12,3c0,0-1.5-1-4.5-2s-2-3.277-5.5-4.389S541,276,541,276l-3.5-5v-3h-4
	v-4.5c2.5,2-1.5,0.5,2.5,2s1-1,4,1.5s3,2.5,3,2.5s0.5-1.5,3.5,1s6,4,6,4c3.5,1.5,4.5,0.5,6.5,1.5s2,1,2,1h13l8.167-0.166
	c0,0,2.333-0.501,2.833-0.167s-0.667,0.668,0.5,0.334s3-1.334,3-1.334l2-1.5c0,0-0.167-0.666,0.333-1.166s0.667-1.5,1.167-1.667
	s0.833-1.833,3-1.333s2.833-0.5,3.167,0.333s0,1.167,0.667,2.167s0.833,0,1.5,1.5s1,0.167,0.667,1.5s-0.167,0.333-0.333,1.333
	s-0.167,1-0.167,1s0.5-0.501,1.333,0.333s0.166-0.166,0.833,0.834s0.667,1,0.667,1s1.667,0.5,2-0.167s0.667-1.667,0.667-1.667
	s0.5-1,1.5-0.833s1.667-0.667,2.333-0.167s2.167,0.666,2.5,1.5s0.333,1.667,0.333,1.667s-1.5,0.999,0.333,1.333
	s1.833,0.334,1.833,0.334s-0.167-0.668,0.833,1.666s0.833,1.334,1,2.334s0.167,1,0.167,1s0.833,1.834,1,3s0.833,2.834,0.667,4
	s-0.5,0.5,0.167,2s0.5,0.334,0.667,1.5s0.167,1.166,0.167,1.166l5.667-0.666c2.5,0.666,2.833,0.499,4,0.666s1-1.167,2.333,0
	s2.167,1.834,2.167,1.834s1,0.834,1.333,2s-0.5,0.166,0.333,1.166s0.833,1,0.833,1s0.167-0.332,1-0.166s12.667,3.666,12.667,3.666
	s0.333,0.334,0.833,0.834s2.333,0.667,2.833,1s2.5,2,2.5,2s0.667,0.999,1.5,1.666s2,1.167,2,1.167l3.833-0.167
	c0,0,1.5,0.667,1.833,1.667s-0.5-0.333,0.333,1s0.833,1.333,0.833,1.333l6.5,2.334c0,0,0-0.999,1.667-0.833s3.667,0.333,3.667,0.333
	s2.5,1.5,2.833,2s-0.333-0.667,0.333,0.5s1.5,2.333,1.5,2.333l1.167,0.334l5,0.333l3.833,2.333c0,0,1,0.501,1.5,1.334
	s0.5-0.167,0.5,0.833s0.167-0.333,0,1s-0.167,2-0.167,2s-0.167,0.5,0.833,1s-0.333-0.333,1,0.5s1.333,0.833,2.5,1.333
	s-0.666-0.334,1.167,0.5s3.667,1.5,3.667,1.5s0,0,0.667,1.167s-0.5,0.501,0.667,1.167s2.5,1,2.5,1s1.167,0.332,2.5,0.166
	s2.333-0.166,2.333-0.166l1.833,0.333l1.167,1.167l1.167,1l1.167,1.166l0.833,0.167l1.5,0.333l1.333-0.166l-3-5.418
	c0,0-0.75-0.5-1.25-1.5s-1.75-2.5-1.75-2.5s-0.5-0.5-0.5-1.25s0.75,0.75,0-0.75s-1.5-2.75-1.5-2.75l-3-1.75l-1.25-1l-2.5-1.25
	l-1.25-1c0,0-0.75,0-1.5-1.25s-2-2.5-2-2.5l-1-1.25l-1.5-1.75c0,0-3-0.5-3-1.75s0.25,0.25,0-1.25s-1.75-3-1.75-3s-0.25,0.25-1.25-1
	s-1.5-1-2.25-1.75s-1.25,0-1.75-2s-0.5-2-0.5-2s-1-1.5-2-1.75s-2.25-0.5-3-1.25s-2-1.5-2.75-1.75S680.5,302,680.5,302l-5-6
	c0,0-1.25-1-1.75-2.25s-1.5-1.5-2-2.5s-0.5-1-0.5-1s-1.75-1-2.25-2.5s-1.75-3-1.75-3l-2.75-2c0,0-2-0.75-2.25-1.5s-1.75-2-1.75-2
	l-1.75-1.5l-5.5-6.25c0,0-1.5,0.5-2.25-1.25s-2.75-2.5-2.75-3.5s0-1,0-1s-2.75-2.5-3-3.5s1.5,0.25-0.25-1s-2.5-1-3-2
	s-1.5-0.75-1.75-2.5s0.25-0.25-0.25-1.75c-0.07-0.211-0.155-0.427-0.25-0.642c-0.577-1.315-1.5-2.608-1.5-2.608s2.25,2,3.5,2.25
	s1.25,0.25,1.25,0.25s-2.5-2,0,0s2.5,2,2.5,2s-1.25,0,0,1.25s0-0.75,1.25,1.25s1.25,2,1.25,2s-1.5-1,0,0s0.75-0.75,1.5,1
	s0,0.25,0.75,1.75S651,265,651,265s-1,0.5,0.75,2s1.75,1.5,1.75,1.5s-1.75-1.75,0,0s-0.25,0.5,1.75,1.75s0,0,2,1.25s0.25,0.5,2,1.25
	s1.75,0.75,1.75,0.75s-1,0.25,0.75,1.5s1.75,1.25,1.75,1.25s-0.75-1.75,0,0s3.75,5,3.75,5s0.25,1,1,1.5s0.75,0.5,0.75,0.5
	s1,1.5,1.75,2s-1-0.75,0.75,0.5s-0.75-0.25,1.75,1.25s1.25-0.25,2.5,1.5s0.25,0.25,1.25,1.75s0,0,1,1.5s-0.25-0.75,1,1.5
	s1.25,0.5,1.25,2.25s-2.5,1.25,0,1.75s1,0,2.5,0.5s0-1.25,1.5,0.5s0,2.25,1.25,3.25s1.25,1,1.25,1s0.75,1.25,1.75,1.75s-1.5-1,1,0.5
	s2.5,1.5,2.5,1.5s-4-1.75,0,0s2.5,0.25,4,1.75s0-1,1.5,1.5s1.5,3.25,2,4s0.5,0.75,0.5,0.75l0,0l3,3.25c0,0-0.25-1,1.75,0s1-0.25,2,1
	s-0.75,0.25,1,1.25s0.5-0.5,1.75,1s1.5,2.75,1.5,2.75l2.25,3l2.5,0.75c1.75,1.75,2.5,3.5,2.5,3.5s0.5,0,1.75,0.75
	s1.25,0.75,1.25,0.75s0.5,0.75,0.75,1.75s0.75,1.25,1.5,2s2,1,2,1c0.5,1.25,0.5,3,0.75,4s-1.25,0.75,0.25,1s3,0.25,3,0.25
	s0.5-0.5,1.75,0s1.25,0.5,1.25,0.5s1.25,2.75,2,3.5s0.75,0.75,0.75,0.75l0.75,1.25c0,0,2.5,0.75,3.25,1s-0.5,0.25,0.75,0.25
	s1.25,0,1.25,0s0-0.5,0.5,1.5s0.5,2,0.5,2l0.75,1.5c0,0,0.5,0,0.25,1.5s-1.5,2.75,0,4.5s-0.25,0.75,1.5,1.75s1.25,0.5,3,1
	s3,2.5,3.5,3.25s0.25-0.5,0.5,0.75s-0.75,1.25,0.5,3.5s2.5,3.75,2.5,3.75c0.5,1.75-0.75,2.25-0.75,3s-1.5,0.25,0.5,2s2,1.75,2,1.75
	l1.5,0.25c0,0,0.25,0,1.25,2s0,0.25,1,2s-0.25,4,1.75,5.5s2,1.5,2,1.5s1.25,2.25,1.25,3.25s-0.25-0.5,0,1s0,1,0.5,2.75
	s-0.25,0,0.5,1.75s0.25,1.5,2.25,2s2,0.5,2,0.5s1.75,1,2.75,1.5s3,1.5,3,1.5c1.5,0.75,3,1.75,3,1.75s2.25,2,3.75,2.75
	s2.75,1.25,3.25,2s0.5,1,1,2s1.25,0.5,2,1.5s3,1,3.25,2.25s-0.25,0,0.25,1.25s1.75,0.5,0.5,1.25s-0.25-1.25-1.25,0.75s-1,2-1,2
	s2.25,2,2.75,2.75s1,0.5,1.75,1.25s-0.5-0.5,0.75,0.75s4.5,1,4.5,1s3.75-0.25,4.75,0s3,1,3,1s-1-0.25,0.5,1.25s3.25,2.25,3.25,2.25
	s-1-0.75,1.5,0.75s1.75,6.25,2.25,7.75s0.5-1.5,0.5,1.5s-3,2,0,3s3,1,3,1s-4.5-3.5,0,0s0.5-1,4.5,3.5s4,4.5,4,4.5s3.166,1,2.833,3.5
	s-0.833-1-0.333,2.5s0.5,3.5,0.5,3.5s0.5,3,2,5s-2-1.5,1.5,2s0.5,0.5,3.5,3.5s3,3,3,3s1,1,3,2s5,3,5,3c3,2,0.5,0.5,3,2
	s3.5,1.5,5,4.5s1.5,3,1.5,3s2,4.5,5,7.5s5,3.5,5.5,5.5s1.5,3.5,2,6s0.5,2.5,0.5,2.5s2.5,1.5,4,2.5s4,1.5,4,1.5
	c2.5,3.5,2.5,3.5,2.5,3.5s4,4,5,5.5s4,0.5,4.5,2s0.5,1.5,0.5,1.5l2.5,2c0,0,2.5,6.5,3,8s-2.5-1.5,0.5,1.5s3,3,3,3s2.5,1,3.5,2.5
	s-1-1,1,1.5s2,2.5,2,2.5l6.5,2c2.5,1.5,2.5,1.5,2.5,1.5s1,1.5,2.5,4.5s-1,0.5,1.5,3s2.5,2.5,2.5,2.5l2.5,1c0,0,0.5,1,2,4.5
	s1.5,3.5,1.5,3.5l0,0c0,0,1.5-0.5,3,3s-0.5,1,1.5,3.5s2,2.5,2,2.5l2.5,1.5l2,6.5c4,2,10,3.5,10,3.5s0,0,3.5,1.5s6,0.5,6,0.5
	s0-1.5,2.5,1s-0.5,0,2.5,2.5s0,0.5,3,2.5s0,0,3,2s3,1.5,5.5,3.5s2.5,2,2.5,2l0,0l4-1.5c0,0,3-0.5,4,1.5s-0.5-0.5,1,2s-1,0.5,1.5,2.5
	s2,5.5,2,5.5l3.5,1c3.5,0.5,3.5,0.5,3.5,0.5s-2.5-1.5,0,0s-1.5-2,2.5,1.5s4,3.5,4,3.5s-3-1,0,0s0,1,3,1s3,0,3,0l3,2.5
	c0,0,4.625,3.625,4.875,4s-1.625-0.875,0.25,0.375s2.75,1.25,3.375,1.625s1.5,0.25,1.5,0.25l0.875-0.125c0,0,1-0.25,1.75,0.75
	s0.25,1.25,0.875,2s-0.875-0.25,0.625,0.75s1.875,0.5,2.875,1s1.25,0.25,2.375,1s1.125,0.75,1.125,0.75s-0.125,0.75,0.5,2
	s0.625,1.25,0.625,1.25s0.125,0,1,0.125s2.125-0.5,2.125-0.5s3.25,1.25,4.75,1.25s0.25,0.25,1.5,0s2.25,0,4.125,1
	s-1.5-1.125,1.875,1s4,2.25,4.5,2.625s0.25,1.625,0.25,1.625l-0.875,2.75l0.25,2l1.375,4.25c0,0-0.75,0.5,0,3s-0.25,2.75,0,4.5
	s-0.25,1,0,3.25s0.5-1.5,0.25,2.25s-1.5,4.5-1.25,6s-0.5,0.75,0.25,2.75s0.25,1.5,1,3.5s1,1.75,1.5,3.25s0,2,0.5,3.75
	s0.25-0.5,0.5,3s-0.5,2.75,0.25,4.75s-1.75-1.5,0.75,2s1.25,2,2.5,3.5s0-0.25,1.25,1.5s2.5,8,2.5,8s-0.75,0.25-0.75,1.25
	s-0.5-1.25,0,1s0.75,2.75,1.5,4s0.75,0.25,1,2.75s0.25,1.25,0.25,2.5s-0.25,2-0.25,3.25s-1.75-2,0,1.25s0.25,2,1.75,3.25
	s2,1.25,3.25,2.5s2,1,2.75,2s0-0.75,0.75,1s2.5,6.75,2.5,6.75s-1-0.25,1.5,1s1.5,0,2.5,1.25s0.25,1.75,0.75,3s-1.75-0.25,0.5,1.25
	s0.5,0.5,2.25,1.5s1.75,1,1.75,1s0.75,0.75,1.75,1s1.25,0.5,2.25,0.75s-0.75-0.75,1,0.25s0.25,0,1.75,1s1-0.75,1.5,1
	s-0.75-0.5,0.5,1.75s0,1.25,1.25,2.25s3.5,1.5,3.5,1.5s-0.75,0.25,0,2.5s-0.5,1,0.75,2.25s1.25,1.25,1.25,1.25s-0.5,0.75,1.25,0.75
	s0-1,1.75,0s0-0.25,1.75,1s2,1,3,1s0.75-0.25,2.5-0.5s1.75-0.25,1.75-0.25s0.75-1.25,0.75-2.25s0-1.75,0-3s0-2.75,0-2.75V767
	l1.25-0.75c0,0,0.75-0.25,1.75-1.75s1-1.5,1-1.5s1.25-1.25,1.75-2.25s2.25-4,2.25-4s3.833-3.25,3.916-3.75
	c0.084-0.5,0.834-2,1.334-2.5s0.75-1.5,1.125-1.625s0.5-0.75,1.125-1.5s1.5-2.375,1.625-2.875s-0.5-1.625,0-2s0.75-1.75,1.125-2.25
	s0.5-0.75,1.125-1.625s0.75-1.25,1.375-1.875s0.75-1.125,1.25-1.75s0.5-1.375,1.25-1.875s0.625-0.5,1.5-1.25s1.125-0.875,1.5-1.625
	s0.875-2,0.875-2s0.5-0.875,0-2.25s-0.875-3.625-0.875-3.625s-0.125-1.25,0.375-1.875s0.723-1.25,0.723-1.25s-0.278-1,0-1.5
	c0.277-0.5-1.931-7.416-1.931-7.416s-0.167-0.333-0.167-1.333s-0.667-2.001-0.5-2.834s-0.333-1.834-0.166-2.5
	c0.166-0.666-0.5-1.999,0-2.666s0.666-1.834,0.666-1.834l2.121-9.666c0,0-2.621-1.333-2.287-2c0.333-0.667,0.666-1.501,1.333-1.834
	s0.954-1.166,0.954-1.166l0.879-1.5c0,0-0.334-1.168,0-2.334s0-2.166,0-2.166s0.129-0.668,0.148-1.834
	c0.019-1.166,0.48-1.666,0-2.666c-0.481-1-0.648-1.834-0.648-2.334s-0.167-0.833,0-1.833s1.064-1.334,0.865-2.167
	c-0.198-0.833,0.029-1.666,0.029-1.666s0.061,0.666,0-1.167s0.027-3.5,0.027-3.5s-0.745-0.666,0-1.833s1.412-2.834,1.912-3.167
	s1.166-1.333,1.166-1.333s-0.667-0.168,0-1.334s0.667-1.833,0.667-1.833l0.833-4.833c0,0-0.667-1.167,0-2s0.166-2.166,1-2.833
	s0.834-1.668,1.334-2.334s0-2.333,0-2.333s-0.723-1,0.222-2s0.278-1,1.111-2.5s0.833-1.5,0.833-1.5s0-0.833,0-1.833s0-2,0-2.5
	s0-1,0-1.667s0-2.333,0-2.333v-1.334c0,0,0.5-0.834,0-1.5s-1-1.5-1-1.5l-1.666-2.667c-0.5-1.334-1.168-3.334-1.168-3.334
	s-0.166-1-0.166-2.5s0-3.5,0-3.5l-1.334-1.166l-0.166-1.458l-0.166-0.876c0,0,0-0.834,0-1.5s-0.168-2.666-0.168-2.666V598
	l-0.416-4.25c0,0-0.25-1,0-2.25s0-0.75,0.25-3s0.25-4.75,0.25-4.75s0.25-1.5,0.25-2.25s-0.25-1.75-0.25-3.25s-0.5-3.25-0.25-4
	s0.25-2.5,0.25-2.5s-0.25-2,0.25-2.75s1-3,1-3s0.25,0,0-2.25s-0.5-4.5-0.5-5.25s-0.5-1.5-0.5-2.5s-0.25-3.25-0.25-4.25
	s-0.25-3.5-0.25-3.5l0.75-3l0.75-1.5c0,0,0.25-2,0.75-3s0.5-3.75,0.5-3.75l0.75-2.25c0,0,0.5-2.25,0.75-3.25s0.25-3.25,0.25-3.25
	s1.944-2.25,1.723-4c-0.223-1.75,0.018-4,0.018-4l1.26-2v-4.585c0,0-0.5-2.334,0-4s0-3.666,0-3.666s0.277-1.334,0.223-3.334
	c-0.056-2-0.931-3.666,0.007-5.666s0-4.334,0-4.334s-0.438-2.332,0.417-3.666c0.854-1.334-0.854-2,0-4.667
	c0.854-2.667-1.028-3,0.246-5s1.941-5.333,2.274-6.333s-1-2,0-3.667s-1.224-4,0.055-5s1.945-3,2.612-4
	c0.666-1,1.333-2.667,1.333-2.667s-1.334-1-0.667,1.667s1.334,1.001,0.667,2.667s-0.667,1.666-0.667,1.666l-1,1.334
	c0,0-0.334,1.333,0,2.333s0.334,1,0.334,1s3.219,2,1.609,3s-1.276-2-1.609,1c-0.334,3-0.334,3-0.334,3s-0.666,0-0.666,2
	s-0.334,4-0.334,4c-0.666,1.667-1.5,5.418-1.5,5.418c0.5,3.75,0.25,3.25,0.25,5s0.25,0,0,1.75s-0.5-0.25-0.25,1.75
	s-0.25-0.25,0.25,2s-0.25,0.25,0.5,2.25s0.5,0,0.75,2s0,1.5-0.25,3.25s0-0.25-0.25,1.75s-0.75,1.75-0.5,3.25s-0.25,0,0.25,1.5
	s0-2.75,0.5,1.5s0.5,4.25,0.5,4.25s-1.25-0.25-1.25,1s-1.25,1.25-1,2.5s0.25,1.25,0.25,1.25s-0.75,0.5-0.25,1.25s-1,4.333-1,4.333
	l-2.666,3l1,2L1154,535c0,0,0,1.334,0.334,3.667c0.332,2.333,0.332-0.667,0.332,2.333s0.334,0.333,0,3
	c-0.332,2.667-1.666,2.999-2,4.333c-0.332,1.334-0.666-1.999-0.332,1.334C1152.666,553,1152,551,1152.666,553
	c0.668,2-0.666-1.333,0.668,2c1.332,3.333,0.999,3.333,1.332,5.333c0.334,2,0.334,2,0.334,2s0-1.666,0,1.334s0,3,0,3
	s0,0.666,0.334,1.666c0.332,1,0.666,0.667,0.332,2.667c-0.332,2,0,1.667-0.666,3.667s-0.333-1-0.666,2c-0.334,3,0,0.667-0.334,3
	s-1-1-0.334,2.333c0.668,3.333-0.332,0.999,0.668,3.333s-0.334-0.332,1,2.334c1.332,2.666,1.332,2.999,1.332,4.666s0-1.333,0,1.667
	s0.667,0.667,0,3c-0.666,2.333,0.334,0.333-0.666,2.333s-1,2-1,2s1.334,0.752,1.334,2.876s-0.334,2.125,0.332,3.458
	c0.668,1.333-1.666,2.666,0.668,1.333c2.332-1.333,3-2.667,3-2.667s-0.334-0.248,0.666-2.124s-0.334,0.79,1-1.876
	s1.395-4.333,1.395-4.333l2.271-2.667v-2.666c0,0-0.666-1.668,0-3.334c0.668-1.666,0-3.666,0-3.666L1168,581l1.334-2.667L1172,567
	c0,0,0.666-1.333,0-3.333s0.26-4.333,0.297-6s1.369-4.667,1.369-4.667l1.668-2.667V549c0,0,3-0.667,3.666-2s1.666-3,1.666-3
	s-1.666-0.667,0-1.667c1.668-1,7.668-6.666,7.668-6.666s-3.667,0,0-1c3.666-1,2.999-1.999,6.332-2.666
	c3.334-0.667,3.334-0.667,3.334-0.667s1.666-2,2-3s-1.334-1.667,0-2.667s2-2.666,2-2.666l4-4.667c0,0-3.333-1.667,0-1.667
	s3.333,0,3.333,0s2.334-2.332,3.667-2.666s3-2,3-2s-0.333-0.001,1.667-1.334s0.667,1,2-1.333s2-5,2-5s0.666-2.001,1.666-2.667
	s1.001-2.332,2.334-2.666s-1,1.332,1.333-0.334s2.667-2.667,4-4s3-3.666,3-3.666s-2-1,0-1.667s2-0.667,2-0.667s0.666,0,2.333-1.333
	s2.667-2.667,2.667-2.667l1.667-1.333l3,1c0.666,1.667,0.334,0,0,3s0.385,4.667,0.385,4.667c-1.052,1.666-1.719,1-3.052,2
	s0.001,0.667-1.333,1s1.666,0-1.334,0.333s-3,0.333-3,0.333s0.334-0.666-1.666,0.667s0.334-0.667-2,1.333s-1.001,0.666-2.334,2
	s-1.666,1.668-1.666,3.334s0.334,0.332,0,1.666s0.332-0.999-0.334,1.334s2.001,0-0.666,2.333s-1.667,0.333-2.667,2.333
	s-2.333,3.334-2.333,3.334s-1,1.333-2.667,2.333s-3.333,1-3.333,1s0-1.333-2,1.667s-2,3-2,3s-0.001-0.666-1.334,1s-3.667,1-4,2
	s-2.333,1.333-2.333,1.333s-0.833,0.749-1.666,1.166c-0.834,0.417-1.168,0.251-1.584,0.667s-0.666,0.332-1.166,0.666
	s-0.75,0.25-1.084,0.667s-0.583,0.583-0.916,1.333c-0.334,0.75-0.501,0.834-0.668,1.167c-0.166,0.333,0.001,0.249-0.582,0.583
	c-0.584,0.334-0.917,0-1.25,0.167c-0.334,0.167-1,0.25-1,0.25s-1.168,0.501-1.418,0.667s-1.416,0.334-1.666,0.5
	s-0.916,1.166-1,1.416s0-0.584-0.084,0.25c-0.082,0.834-0.082,0.001-0.082,0.834s0.083,0.166,0,0.833
	c-0.084,0.667-0.334,1.084-0.668,1.417c-0.332,0.333-0.832,0.25-0.916,0.5s-0.333-0.166-0.666,0.5
	c-0.334,0.666-0.334,0.249-0.334,0.666s-1.584,2.084-1.584,2.084s-0.5-0.166-1.166,0.834s-1.166,0.499-1.666,1.666
	s-0.5,0.334-0.5,1.167s-0.334-0.167,0,0.833c0.332,1-0.5,0.668-1,1.834s-1,1.666-1.334,2.333s-1.5,0.833-1.666,1.333
	c-0.168,0.5-0.501-0.334-1.168,1c-0.666,1.334,0.168-0.332-0.666,1.334s-1,1.333-1.166,2.333c-0.168,1,0.666-1.167-0.168,1
	c-0.832,2.167-0.832,3-0.832,3s-0.334-0.166-0.168,0.667c0.168,0.833,0.001,0.166,0.168,0.833c0.166,0.667-0.168-1.666,0.166,0.667
	s0,5.834,0,6.5s-0.334,0.833-0.334,1.833s-0.333,0.667,0,2.167c0.334,1.5-0.5-0.833,0.334,1.5s0.667,2.166,0.834,3.166
	c0.166,1,0.332,0.834-0.168,2.167s0.5-0.167-0.5,1.333s-2,2.834-2,2.834s-0.5-0.334-1.166-0.167s-1-0.001-1.5,0.833
	s0.166-0.499-0.5,0.834s-0.834,0.834-0.834,2s0,1,0,1.833s0,2.833,0.334,3.5s0.5-0.499,0.334,0.667
	c-0.168,1.166-0.168,0.5-0.668,1.833s0.334-0.001-0.5,1.333c-0.832,1.334-0.5,1.166-1.5,1.5s-2.166,0.334-2.166,0.334
	c-0.666,1.5-0.5,0-0.666,1.5c-0.168,1.5-0.334,2.583-0.5,3.208c-0.168,0.625-0.001-0.375-0.168,0.625
	c-0.166,1-0.166,1.667-0.166,3.667s-0.334,2-0.834,3.333s-0.666,1.501-1.166,2.167s1-0.834-0.5,0.666s-2,1.668-2.334,2.834
	c-0.332,1.166-0.166,0.166-0.332,1.166c-0.168,1-0.834,5-0.834,5c-0.5,1.667-0.5-0.5-0.5,1.667s-0.334,0.167,0,2.167
	s0.5,0.5,0.334,2c-0.167,1.5-0.168,0.834-0.834,2.5s-0.5,0.999-0.666,1.666c-0.167,0.667-0.334,0.501-0.5,1.334
	c-0.167,0.833-0.834-0.834-0.167,0.833s-0.167-0.333,0.667,1.667c0.833,2,0.666,1.334,1.166,3s0.5,1.334,0.667,2.5
	s1-0.834,0.167,1.166c-0.834,2-1.167,1.667-1.667,2.667s-1.833,1.001-2,1.667s-0.833,0.334-1,1s0.166-0.501-0.167,0.666
	s-0.333,0.167-0.333,1.167s0.167,3,0.667,4.5s0.5,1.499,0.5,3.333s-0.167,0.501-0.167,3.334s0.333,2.499,0,3.666
	s-0.834,1.166-1.167,2s-0.334,0.5-1,1.5s-1.333,0.168-2.166,1.334c-0.834,1.166-1.667,1.333-1.667,1.333l-0.5,0.667
	c0,0-0.333,0.334-0.333,1s0.333-0.168,0,0.666c-0.334,0.834-0.668,1.667-0.834,2.167s-0.166,0.5-0.166,0.5s-0.167,1.334-0.167,2.167
	s-0.167-0.667,0,0.833s0.167,1.167,0.667,2.5s-0.167-0.334,0.5,1.333c0.666,1.667,0.332,1,0.666,1.667s0.334-0.5,0.334,1.5
	s-0.834,5.833-0.834,5.833s-0.666,0.333-0.666,1s-0.334,0.834-0.167,1.834s-1-1,0.167,1c1.166,2,1.5,1.333,1.333,2.833
	s-0.167,0.5-0.667,2.5s-0.5,0.167-0.5,2.667s-0.334,1.334,0,2.5s0.167,0.5,0.667,1.833s0.333,0.5,0.5,2.5s0.167,0.5,0.167,2
	s-0.334,0.999,0.166,2.333s-0.334,1.334,0.5,1.334s1-0.501,1.834-0.334c0.833,0.167-0.5,0,0.833,0.167s0.333-0.999,1.333,0.167
	s0.166,0.999,1,1.166s1.667-1.166,1.667-1.166l0.667-3.667l-0.334-2c0,0,1-1.5,1.667-2s1-2,1.167-2.5
	c0.166-0.5,0.333-2.833,0.333-2.833s-0.334-1.166,0.333-1.5s1.5-1.667,1.5-1.667s0.167-0.833,0.334-1.333
	c0.166-0.5,0.166-1.167,0.666-1.667s1.5-2,1.5-2l1.167-1.5c0,0,0-0.666,0.667-0.833c0.666-0.167,2-1.667,2-1.667l0.833-1l0.833-1.5
	c0,0,0.333-0.5,1-1s1.667-1.333,1.667-1.333l1-1L1178,685c0,0-0.25-1,1.25-1.25s2.25-0.25,3-1s2.75-3.5,2.5-4.25s-2.5-2.5-1.5-3.25
	s2-3.5,3-3.75s2.5-1.5,2.5-1.5s0-1,0.75-2.25s-0.75-3,2.5-3.75s1.25-0.25,3.25-0.75s2-0.5,2-0.5s1-2.5,1.75-0.25s0.75-1.5,0.75,2.25
	s0.75,2.5,0,3.75s-0.75,1.25-0.75,1.25s-1.5,0.75-2.25,2s-3-0.25-0.75,1.25s2.25,1.5,1,2.5s-3,0.5-3.5,1.5s-2,2.25-2,2.25
	c-0.25,1.75-1-1.25-0.25,1.75s-0.25,4.25-0.25,4.25s-1.25,0.75-2,1.5s-2.25,1-2.25,1l-3-0.25c0,0-2,1.25-2,2.5s1-0.5-0.75,2.5
	s-1.75,3-1.75,3s-2-0.25-2.5,0.5s-1.75,1.75-1.75,1.75s-3.25,3.5-3.75,4.5s-2,2-1.75,3s0.25,1,0.25,1s-1,0,0,1.25s0.5-0.75,1,1.25
	s0.5,2,0.5,2s-1.25,1.5-1.75,2.5s-0.5,1-0.5,1s-0.75,0.25-1,1.25s0.25-1.5-0.25,1s-1,2.5-0.75,3.75s0,2.5,0,2.5
	c-1,1.25-1,1.25-1,1.25l-2.5,0.75c0,0-1.75-0.5-3,0s-3.5,0.75-3.75,1.5s-1.5,1.5-1.5,1.5l-0.75,1.5c0,0,0,0.25,0,1.5
	s-0.5,1.75-0.25,2.75s-0.5,2.75-0.5,2.75S1153,737,1152.5,738s-3,1-3,1l-4,5.5c0,0-1,0.25-1.75,1.25s-2,2.25-2,2.25
	c-1.25,1.75-3.25,2.75-3.25,3.75s-0.5,1.5-0.75,2.75s-0.25,0-0.25,1.25s0,4.25,0,4.25s0,0.75-2,3s-2.5,2-3.75,3.5
	s-2.25,1.75-2.75,2.75s-0.25-0.25-0.5,1s-0.5,3.25-0.5,3.25s0.5,0.75,0.25,2.5s-2.25,4.25-2.25,4.25l-1.5,2.5l-2.25,2.25
	c0,0-0.75,2-1,3s-0.25,1-0.25,1s0.25,1-0.5,2.75s0,0-0.75,1.75s-2.5,3.5-2.5,3.5s0,0.25,0,1.25s-1.75,3.5-2.5,4s0.5-1-0.75,0.5
	s-2,1-2.75,2s-0.75,1-0.75,1s-1,4.25-0.75,6s-0.5,2.5,0,3.75s0.75,1.75,0.75,3.5s0.5,1.75-0.25,3s-2,2.75-2,2.75
	s-2.25,2.5-2.25,3.25s-0.5,0.25-0.5,2.75s0,4,0,4s-0.25,1.25,0.25,2.75s0,1.75,1.25,2.75s-0.5-0.75,1.25,1S1110,843,1110,843
	s0.75,1.5,1,2.5s-0.25,1.25-0.5,2.75s-1,0-0.25,1.5s0.75,1.5,0.75,1.5s1.25,0.75,1,2.75s0.25,0.25-0.25,2s0.5-0.5-0.5,1.75
	s-1.25,2.75-1.25,3.75s0-0.75,0,1s-0.5,0,0,1.75s0.5,1.75,0.5,1.75l0.75,3.25c0,0,0.25,1.25,1.25,2.5s2,1.25,2.75,2.5
	s0.25-1.75,0.75,1.25s0.25,4.25,0.75,6.5s0.5,2.5,0.75,4.5s-0.25,3-0.5,5s-0.5,3-0.5,4.25s-1-0.25,0.25,3.25s1.25,4.75,2.25,5.5
	s-0.5-1.5,1,0.75s2,2,1.75,4s-0.5,4.25-0.5,4.25l-0.25,3.75c0,0,0.25,5.25,0.5,6.5s0.691,2.25,0,4.25s-1.75,1.326-0.691,2
	s1.191,4,1.441,5S1124.629,945.714,1124.629,945.714z"/>
<g>
	<path fill="#7A1C58" d="M1080.25,756.5h-1.75h-4.166l-4.667,4.166l-6-2.083c0,0-3.333-1.582-5.333-2.083s-2-0.501-2-0.501v-5.333
		h-2.667v-4v-4c0,0-6.667-4.001,0-4.667s6.667-0.666,6.667-0.666l3.528-5.666H1061l-3.333-3.668l1.333-7.332h-2.666
		c0,0-3.088-4.599,2.666-6s4.5-4.417,4.5-4.417h4.167c0,0-0.667,2.251,2.667,0c3.333-2.251-4-2.918,3.333-2.251
		s6.667-1.826,10-0.246s3.333,1.58,3.333,1.58s1.334-6.229,2.667-2.114S1089,708,1091,711.333s1.333,0,2,3.333
		s0.667,3.333,0.667,3.333v4.667v3.333c0,0,0.667,0.668-3.333,1.334s-4,0.666-4,0.666l0,0L1083,733.24c0,0-2,0.092-1.333,2.759
		s0.667,2.667,0.667,2.667l0,0c0,0,0.666,0.001,2,2.667c1.333,2.666,1.333,2.666,1.333,2.666s0-4,0,0s2.917-0.001,0,4
		S1082,749,1082.75,752s0.75,3,0.75,3L1080.25,756.5z"/>
	<path fill="#7A1C58" d="M1059,703.25l1.667-2.249c0,0-1.667-1,0-1.667s1.333,0.999,1.667-0.667c0.333-1.666,0-4,0-4l0.147-2.333
		c0,0-0.333,1.667-1.741,0c-1.406-1.667-6.073-3-6.073-3s-2.546-0.002-2.546,0s1.287,0.331-1.417-0.001s-4.704,0-4.704,0
		s-1.333,0.371-2.333-0.147s-1.667-1.148-2.667,0s-1,1.148-1,1.148l-3,1.333c0,0-1.666,0.334-1.666,1.334s-2.334,1.787-2,2.894
		c0.333,1.106,0-1.227,0.333,1.106s-2.732,2.999-0.366,3.666s2.366,0.667,2.366,0.667l1.667,1.916l0.333,2.563
		c1.667,1.188-0.667,0.188,1.667,1.188c2.333,1-0.334,1.334,2.333,1s-0.333,0.666,2.667-0.334s1-1,3-1s1.74-1.707,3.37-0.854
		s-0.37,1.52,1.63,0.854s0.333-0.999,2-0.666C1056,706.334,1059,703.25,1059,703.25z"/>
	<path fill="#7A1C58" d="M1023.5,637.75v-4.083c0.834-1.667,2.5-3.334,2.5-3.334s-1.334-0.334,0-2s1.334-3.333,1.334-3.333v-2
		l-3.834-3l-2.5-2.667h-2c0,0,0-2.334-2-2s-3-0.064-4.333-0.032s0,0.032-1.333,0.032c-1.334,0-1.334,0-1.334,0l-2.333-0.034
		c0,0,1.333,0.034,0,1.034s-1.333,1-1.333,1s-0.667,1-2,1.667c-1.334,0.667-1.334,0.667-1.334,0.667l0,0v1.666l-1.666,0.667
		l-2.186,1.32l-5.814,3.204l-8.667-7.191L976,612.667L970.667,611l-3.548,2.292c-0.452,1.708,0.548,0.041-0.452,1.708
		s0-0.999-1,1.667s-1,0.332-1,2.666s-0.667,0.668,0,2.334s-0.667,0.332,0.667,1.666c1.333,1.334,1.333,1.334,1.333,1.334
		s-1.667-3.666,0,0s1,1.999,1.667,3.666c0.666,1.667,1,1,2,2s0,0,2.333,0.667s-0.001-0.999,2.333,0.667s2.334,1.666,2.334,1.666
		s0.332,0.334,0.666,1.667s0,1.5,0.667,2.75s0-2.75,0.667,1.25c0.666,4-1.334,2.667,0.666,4s2.667-2,3.667,0s3.333,2.667,5,2
		s7.185-2,7.185-2l1.482-2l1-1.667l1.666-1c0,0-0.667-2,2-0.333s2.667,1.667,2.667,1.667s1-1.333,1.667,0
		C1007,641,1005.333,640.333,1007,641s-1,0.667,1.667,0.667s4.667-0.334,4.667-0.334c2,0.667-0.667,1.666,2,0.667
		c2.666-0.999,2.666-0.999,2.666-0.999l0,0L1023.5,637.75z"/>
	<path fill="#7A1C58" d="M923.334,582.333h-2H920h-2.334h-4.332c-2,0.334-2,0.334-2,0.334H910l-1.334-4.334c0,0-0.333,0,0-1.333
		c0.334-1.333-0.147-2.667-0.147-2.667h-1.185H906c0,0,2-1.666,0-1.333s-3.666-0.044-3.666-0.044l-2-1.623v-2h-2.668h-1.332H895
		L893.666,567l-2-2.667h-1.891H888c0,0-0.334-2.667-1.334,0s-1.333,0.667-1,2.667c0.334,2,0.334,0.333,0.334,2
		s-0.25,3.481-0.459,3.907c-0.207,0.426,1.793-1.574-0.207,0.426s0,1-2,2S877,576,877,576l-2.666-1H871c-2,2-7,2.667-7,4
		s1,1.667,0,2.667s-2-1-1,1s-1.334,0,1,2s0.667,0.667,2.334,2C868,588,865.666,587.333,868,588s-1-0.333,2.334,0.667
		c3.332,1,1.666-1.333,3.332,1c1.668,2.333,0.334,0.666,1.668,2.333c1.332,1.667-1.001-0.999,1.332,1.667
		c2.334,2.666-0.332,0.666,2.334,2.666s0.333,1.333,2.666,2C884,599,880.666,599,884,599s3.885-0.333,5.775,0s0.477-1.667,3.184,0
		s-0.293,5.667,2.707,1.667s0.667-2.666,3-4c2.334-1.334-1.332-1.668,2.334-1.334s1.666-0.999,3.666,0.334s1.334-0.667,2,1.333
		c0.668,2,0,4.444,0.334,5.389s0.334-1.39,0.334,0.944s-1.334-0.332,0,2.334c1.332,2.666-0.334-0.001,1.332,2.666
		c1.668,2.667-1.332-1.666,1.668,2.667s-1.667,4.333,3,4.333c4.666,0,3.666,0.666,5.666,0s0.667-1.666,4.334-1.333
		c3.666,0.333,2,1.333,3.666,0.333s1.334-2.333,2-3.333s-2-1.999,0-3.333s2-3.458,2-3.458l-1.334-3.542l-2.332-2.334
		c0,0-0.667-0.666,0-1.666c0.666-1,1-3,1-3s-0.334-0.334,0.332-1.334c0.668-1,0.334-2.944,0.334-2.944c1.666-2.389,2-3.722,2-3.722
		l-2-2L923.334,582.333z"/>
	<path fill="#7A1C58" d="M874.334,566l6.332-2.853v-1.814v-6c0,0,1.334,2,2.334,0s0-3.667,0-3.667l0.444-1.333V548l-1.778-1.334
		L880.334,544l-1.445-1.334H877L874.334,541L873,538.333c-1.666-0.667-3.666-2-3.666-2l-3-1.667l-3.748-3
		C860.666,531.333,857,530,857,530h-2.666c0,0-2-1.668-3-1.334S847,529.334,845.666,530c-1.332,0.666-2.666,0.333-2.666,0.333
		l-3.333-1.711c0,0,1,0.378,0,1.711S837,532,837,533s-1.333,0.333-1.333,1.333s0-1.667,0,1S835,536,835.667,538s-0.666,0,0.667,2
		s1.333,2,1.333,2s-3.333-2.666,0,0s1,0.999,3.333,2.666c2.334,1.667,2.334,1.667,2.334,1.667s-1-3,0,0c1,3,1,3,1,3l4.666,4.333
		c0,0-0.334,0.667,0,1.667s0.334,1,0.334,1s-2.667-1.667,0,0C852,558,850.666,556.667,852,558s0.334-0.667,1.334,1.333
		s-1.667,0.333,1,2C857,563,857,563,857,563s1.148-0.038,2.407,0.147s-3.741-1.147,1.259,0.186s3.667,0.333,5,1.333
		c1.334,1-0.666,0,1.334,1s2,1,2,1s0.667-1,2.334,0C873,567.666,874.334,566,874.334,566z"/>
	<path fill="#7A1C58" d="M794.5,573.391L789,571h-2.5H785h-2l-1,1.195h-2.25c0,0,0.75-1.805-1.25,0s-2.75,1.555-3.25,2.305
		s-1.5,0-1.5,0l-1.75,1.75c0,0,1.5-2.25,0,1s-1.5,3.25-1.5,3.25s-1.25,1.707-1.25,2.354s-0.25-0.854,0,0.646s-1.75-0.25,0.25,1.5
		s0.5,1.25,2,1.75s-0.25-0.25,1.5,0.5s1.25-0.5,1.75,0.75s0.5,1.25,0.5,1.25s-0.75-2.223,1,0.139S776,591.25,778,591.75
		s0.25,0,2,0.5s1.5,0,3.25,0s-2,1.25,1.75,0s3.75-1.25,3.75-1.25s-2,0.75,0,0s2-0.973,2.75-1.611s0.75-0.639,0.75-0.639
		s0.75-1.75,2.25-1.5s1.5,0.25,1.5,0.25l1.25-2.25c0,0-0.75-0.5,0-1.25s0.75-0.75,0.75-0.75v-1.348l0.667-3.235l-1.115-3.358
		L794.5,573.391z"/>
	<path fill="#7A1C58" d="M727.875,587.062c0,0-0.062-2.25,0-2.75s-0.125-1-0.75-1.688s-1.812-1.25-2.5-1.5s-1.438-0.625-1.938-0.875
		s-1.312-0.875-1.312-0.875s0.875,0.125-1-0.438s-2.75-1.125-3.688-1.125s-2.688,0.25-2.875,0s0.188-0.5-2-0.5s-1.688-0.188-2.75,0
		s-2.688,0.562-2.938,0.75s-0.812,0.5-1.125,0.812s-1.875,0.875-2.312,0.875s-0.5-0.938-1.062,0s-1.062,1.188-1.562,2.062
		s-0.812,0.625-1.438,2s-0.938,1.938-0.938,2.812s-0.188,0.938-0.375,2s-0.75,0.5-0.812,1.438s-0.875,1.562,0,2.438
		s-0.312,0.375,1.438,1.375s2.25,0.938,2.812,1.5s0.125-0.375,0.938,1s-1.438,0.438,1.562,2s2.312,1.312,4,2
		s1.438,1.125,3.875,1.312s2.062-0.062,4.625,0s5-0.375,5.75-0.625s0.875-0.812,1.625-1.438s0.5-0.938,1.375-1.625
		s0.875-1.188,1.438-1.5s0.562-0.125,1.188-0.875s1.022-1.312,0.761-2.312s-0.949-1.562-0.636-2.5s0.436-1.562,0.718-1.688
		s0.345-0.125,0.47-0.562S727.875,587.062,727.875,587.062z"/>
	<path fill="#7A1C58" d="M824,452c0,0,4-2.5,4.75-2.5s1.75,0.25,3,0s3.75,1,5.5,1.25s1,1,2.75,1.25s3,0.5,4,1.5s2.5,2.75,3.25,3.75
		s-0.25,1.5,0,3S846.5,463,846.5,463s-0.25,3.5-1.25,3.75s-1.25-1-2.25,0s-2.75,0.75-2.75,1.5s0-1.25,0,0.75s-0.25,2.25,0,3.75
		s-0.75-0.25,0.25,1.5s1.5,0.75,1,3s-0.5,2.25-0.5,2.25l-2.781,4.048l-2.452,0.952c0,0-1.767-1.75-2.267,0s1.25,0-0.5,1.75
		s-3,2.25-3.75,3S824,491,824,491s-0.75,0-2,0s-4.25,0-4.25,0s-0.25-0.5-1.5-1.25s-3.25-0.75-3.5-2s-1.5-2.75-1.5-2.75
		s-1.5-1.75-1.25-3.75s-1.057-2-0.028-3s-0.472,0.25,1.028-1s2-2.75,2.5-3.5s0-3.033,0.5-3.517s0-1.983,0-1.983s-0.25-0.75,0-1.5
		s-0.5-1.25,0-2.25s0.5-1,0.5-1l0,0l-2.5-1.75h-2.429l-1.321,0.5c0,0,1.25,0-1.75,0.25s-4.5,0.25-4.5,0.25l-4.25-0.5
		c0,0-1.75-0.5-3-0.5s-2.25,0.5-3-0.75s-1.25-1.25-1.75-2.5s-2.25-2.75-2-3.75s-0.024-3-0.024-3s-1.524-2.566,0-2.283
		s1.524,1.674,2.274-0.021S791,446.25,791.5,445s0-2.25,0.25-3s-0.25-2-2-2.75s-2.75,0-3.5,0s-1.5,1-3.75,1.25s-4.75,0-4.75,0
		s-3.75,0.584-4.25-1.583s-2.25-3.667-2.5-5.417s0-1.75,0-3s0-3,1-3.5s0.25-0.25,2.5-1.25s-0.75-0.5,2.25-1s2.25,0.5,4,0
		s2-0.039,2.75-0.145s0.75-0.105,0.75-0.105V423l1.417-2.333l1.083-2.417h3v5v3.25l5.25,4l8.5,4.5l9.75,11.25l7.25,8.375L824,452z"
		/>
	<path fill="#7A1C58" d="M765.25,396.75l1.25-3c0,0,0.25,1,1.25,0s1-1,1-1v-2.5V389c1.75-0.5,0.25,0.25,1.75-0.5s0,1.25,1.5-0.75
		s0.75-3,1.5-3.5s0-2,0-2l0.333-2c0,0-0.833-1.75-1.833-1.75s-1.916,0.5-2.458,0s-1.292-1.5-2.292-1.75s-2-0.75-3.25-1.75
		s-2.75-2-2.75-2h-1.5c0,0-0.5-1.75-1,0s0.25,0.25-0.5,1.75s-0.75,1.5-0.75,1.5s-1.75,0.25-1.75,1s1.25-0.75,0,0.75
		s-1.25,1.5-1.25,1.5s1.5,5.223,2,4.986S765.25,396.75,765.25,396.75z"/>
	<path fill="#7A1C58" d="M697.5,309.5v-1.75c0,0-1-0.5,0-2s1-1.5,1-1.5s0.75-0.75,1.25-1.75s-1.25-2.5,0-3s-1,0.5,1.25-0.5
		s2.5-2,4.25-1.75s-1.25-0.5,1.75,0.25s1.5-0.75,3,0.75s0.5,1,1.25,3.25s0.75,0.5,0.75,2.25s0,2.75,0,2.75l-1.25,0.25l-1.25,0.5
		l-2.75,1c0,0-1.944-0.25-2.222,0.25s-0.278,0.5-0.278,0.5s-1.75-0.75-2,0.5s-2.25,1.75-2.25,1.75L697.5,309.5z"/>
	<path fill="#7A1C58" d="M673.5,270.75c0,0,0.5,1,1.5,1.75s-1.5,0.75,1,0.75s2-0.75,4.25-1.25s0.5,1.75,2.25-0.5
		s1.75-2.25,1.75-2.25v-4.75c0,0,1.5-1.25,0-2s0.5-0.75-3-1.75s-5.25-2-5.25-2s-0.5-2.5-1.5,0s-2.25,2.25-2.5,3.5s-1.5,1.25-1.75,2
		S670,263,670,265s0,2,0,2l2,2.5L673.5,270.75z"/>
	<path fill="#7A1C58" d="M524,251.75V255l-9,2.639c0,0-3-0.25-3-2.944s-0.5,0.806,0-2.694s-0.5-1,0.5-3.5s-3.5-0.5,1-2.5
		s1-1.5,4.5-2s1.5-3,3.5-0.5s0.5,0,2,2.5s2.083,3.417,2.083,3.417l-0.5,1.333L524,251.75z"/>
	<path fill="#7A1C58" d="M453.417,237.833c0,0-1,0.75-2.167,0s-3-1.583-3-1.583s-0.833-0.501-1.333-0.917s-1.083-1.084-1.75-1
		s-1.75,0.152-2.917-0.007s-1.583-0.91-2.917-0.493s-1.167-0.416-2.5,0.584s-1.667,0.666-2.083,1.166s-0.917,0-1.75,0.917
		s-1.417,1.249-1.75,2.083s-0.917,0.418-0.75,1.834s-0.583,0.999,0.167,1.416s1.083,0.25,1.25,1S431.75,243.75,432,244.5
		s0.25,0.667,0.917,1.417s-0.25-0.418,0.833,1.166s-0.083,1.084,1.5,2.167s2.083,1.249,3.167,1.583s0.917-0.166,2.667,0.334
		s0.916,0.666,3.583,0.416s3.334-0.166,4.417-1.166s1.333-1,1.75-1.917s0.25-1.583,0.917-2.583s1-1.667,1.667-2.417
		s0.667-0.333,0.75-1.333s0.417-1.334,0-2.084S453.417,237.833,453.417,237.833z"/>
	<path fill="#7A1C58" d="M1169.5,705.25h3c0,0,2.5,3.002,4,2.876s1.5-1.366,4.5,0.004s0.5-0.87,5.5,0s5,0.87,5,0.87l3.5-3.75
		c0,0,0.5-2.25,2.5-2.75s2.5,1.5,4,0s1.5-1.5,1.5-1.5l3-5.5V691l-4-2.461c-3-0.539-3-0.539-3-0.539s0.5,3.5-2,0s-2.5-3.5-2.5-3.5
		l-3.5,0.75l-6.5-0.75l-9.5,8l-5.5,4.25V705.25z"/>
	<path fill="#7A1C58" d="M1218,684.5c2,0,2,0,2,0s3.5-3,2.5-4.5s-4.5-3-4.5-3h-5l-2.5,3.75h-2c0.5,2.75,0.5,2.75,0.5,2.75s0-4,0,0
		s0,4,0,4s-2-0.922-0.5,1.039s1.5,1.961,1.5,1.961s-1.5,1,2,0s3.5-1,3.5-1l0,0l1.333-3.666L1218,684.5z"/>
	<path fill="#7A1C58" d="M1187.75,660.334c1.084,0,0.917-1.001,2.584-0.667c1.666,0.334,1.666,0.334,1.666,0.334
		s2.333-1.834,2.166-2.834c-0.166-1-0.332-3.5-0.832-3.833s-1.909-1.833-2.371-2c-0.463-0.167-1.797-1.667-2.463-2.167
		s-1.5-0.667-2-1.5s0-1.832-1.5-1.166s-2.5,0.834-3.666,1.5c-1.168,0.666-2.668,0.834-2.834,1.5s-1,1-1.166,2.333
		c-0.168,1.333-0.334,0.166,0,2.333c0.332,2.167,0.166,2.334,0.5,2.834c0.332,0.5,1.666,1.666,2.5,2.166
		c0.832,0.5,0.166-1,0.832,0.5c0.668,1.5-0.333,1.5,1,2.167c1.334,0.667-0.332,0.501,1.334,0.667s0,0.166,1.666,0.166
		c1.668,0,0.668,0.333,1.668,0s0.916-1.333,0.916-1.333V660.334z"/>
	<path fill="#7A1C58" d="M1148.5,604.209L1146,601c0,0,1,0-1.666,0c-2.668,0-2.668,0-2.668,0H1139c0,0-0.334,0.209-1.334,1.604
		s-2,1.604-2,1.604c-1.666,2.791-2.666,2.458-3,3.458c-0.332,1-0.332,1-0.332,1s0.333,0.333,0,2.333c-0.334,2-0.334,2-0.334,2
		s1,0.333,0,1.333s-1.334-0.667-1,1s-1.333,0.334,0.334,1.667c1.666,1.333,2.332,0.667,3.332,1.667s1,1,1,1s-2.333-2.666,0,0
		c2.334,2.666,2.748,1.666,3.874,2.333s1.126,0.667,1.126,0.667s1,1,2,0s-1.666-0.666,1-1c2.668-0.334,2.668-0.334,2.668-0.334
		l2.166-0.666c4.5-1.833,4.5-1.833,4.5-1.833l1.334-2.834v-5l-3.668-6.791H1148.5z"/>
	<path fill="#7A1C58" d="M1135.666,570c0,0-1-0.667,0-1.667s0-2,0-3.333s0.445-2.333-0.443-4s-0.778-1.667,0-3.667
		c0.777-2,0.666-5,0.889-6s0-3,0-3s-0.252-1.332-1.516-1.666c-1.262-0.334-4.104-0.668-4.016-1.334c0.086-0.666,0.087-1.334-2.246-2
		c-2.334-0.666-0.334-0.334-3.668,0c-3.332,0.334-5,0.334-6.666,1.667s-0.333-0.667-1.666,1.333c-1.334,2,0-1.334-1.334,2
		s-1.666,4.667-1.666,5.667s-1.667,0.947,0,2.474C1115,558,1113.666,556.333,1115,558s-1-0.999,1.334,1.667
		c2.332,2.666,2.666,2.667,3.332,4c0.668,1.333-1.999-1,0.668,1.333c2.666,2.333,1.803,1.999,4.067,3.333s0.599,1.334,2.265,1.334
		c1.668,0-0.666,0,1.668,0c2.332,0,4,0.333,4,0.333H1135.666z"/>
	<path fill="#7A1C58" d="M1132.666,538c-1,0-5,0-5,0s1-1.333,0-3s-0.666-2.333,0-3.333c0.668-1-0.631-1.333,2.186-2
		c2.814-0.667-0.186-2,2.814-0.667s1.334-1.001,3,1.333c1.668,2.334,0.001,0.334,1.668,2.334c1.666,2,0,3.666,0,3.666L1136.21,538
		H1132.666z"/>
	<path fill="#7A1C58" d="M1151.5,534.75v-1.535c0,0-1.5-0.214-1.834-1.548c-0.332-1.334-2.332-3.237-2.332-3.237
		c-1.334-1.763-2.668-4.097-2.668-4.097s-0.666-1.333,0-2.333c0.668-1-0.666,0.667,0.668-1c1.332-1.667,0.869-2.667,2.602-3.667
		c1.73-1,0.397-0.667,1.73-1c1.334-0.333,1.667,0.333,3,0c1.334-0.333,9.334-2,9.334-2s-0.334-1.667,2.666,0s0-1.666,3,1.667
		s1.334,1.666,3,3.333c1.668,1.667,1.668-1.333,1.668,1.667s0-0.333,0,3s0.666,4,0,6c-0.668,2-1.668-0.667-0.668,2
		s-0.666,0.334,1,2.667c1.668,2.333,1.668,2.333,1.668,2.333s2.948-0.667,2.807,0c-0.141,0.667,3.525,0,4.859,0
		s3.25-1.825,5.75,0.296s3.583,1.703,4.916,3.037c1.334,1.334,2-0.104,3,2.615s1,0.386,1,2.719s-2.982,3.667-2.491,5
		s2.158,0,0.491,1.333c-1.666,1.333-3.666,2.001-5,2.667c-1.332,0.666-2.684-0.666-4.008,0s-1.992,0.947-2.658,1.807
		s-3,3.193-3,3.193s-0.666,1,0,2s0.333-1.333,0.666,1C1181,565,1179.334,569,1179.334,570s-3.052,0.999-2.193,2.333
		c0.859,1.334-1.308,0.168-0.975,1.668c0.334,1.5-1.832,1.666-1.832,1.666H1173l-3.666,2.666h-2c0,0-1.667-1-2-2
		c-0.334-1-1.668-2.666-1.668-2.666c-2.332-0.667-4-1.667-4-1.667s-4.244,0.73-4.122-0.135s-1.21-0.532-1.21-0.532l-8.334-3l-1.63-2
		V564c0,0-2.63-0.667,0-2s0.63,0.834,2.63-1.333s2-2.167,2-2.167l0,0l-0.609-4.429l1.943-8.108l1.666-5.296L1151.5,534.75z"/>
	<path fill="#7A1C58" d="M1196.666,520c0.334,2-2.666-1.667,0.334,2s3,3.667,3,3.667s-2.75,2.834,0,2.667s2.667-2.001,4.334-0.834
		c1.666,1.167-2.334,1.834,1.666,1.167s0.667,0.666,4-0.667s4-2.068,6-3.534s-0.333,0.534,2-1.466s2.334,0.666,2.667-3
		s0.333-3.666,0.333-3.666h2.333l3.667-2.742l-1-2.925c0,0-2.338-3.271-5.169-3.803s-5.498-1.531-5.498-1.531s-1.332-1.667-2.666,0
		s-2.333,1.668-4,2.334s-0.667,0-2.667,0.333s-2.667-0.667-4.334,0c-1.666,0.667-3.666,0.667-3.666,0.667s-1.334-0.334-1.334,0.666
		s-0.358,0.333-1.012,2c-0.654,1.667,0.012,0-0.654,1.667s-0.825,3.762-0.825,3.762l1.575,2.488L1196.666,520z"/>
	<path fill="#7A1C58" d="M1231.333,489.666v-2.833l-2-1.167c0,0-0.666-0.333-1.166-1.333s-0.166,0.167-0.5-1s-1.5-1.834-0.667-2.667
		s2.02-2,2.02-2s-0.813-1.667,0-2s1.979-0.333,2.313-0.833s-0.999-0.667,0.334-0.5s0.332-0.125,2.666-0.062s3.334-0.009,3.334-0.009
		l1-1.262c0,0,0.334-0.5,1-1s0.666-0.334,1.666-0.834s-0.666-1.166,1.834-1.333s2.667-0.833,4,0s2.166,0.667,2.833,2
		s0.167,0.167,0.667,2.167s-1.333,1.333,0,2.833s0.5,1.333,1.5,3s0.834,1,1,2.5s-0.5,2.166-1,3.333s-1,1.001-1,1.834
		s-0.834,1.167-0.667,2s-0.166,0.5-0.333,1.5s-1,0.834-1.167,2s0,1.166-1,1.833s-1.229,0.499-1.948,0.833s-1.219,0.334-3.219,0.667
		s-2.884,0.833-2.884,0.833s-0.782,0.333-2.282,0s-2.692-1.341-2.859-1.335s-1.808-0.998-1.808-0.998l-1.464-1.733l-0.869-2.934
		L1231.333,489.666z"/>
	<path fill="#7A1C58" d="M1157.166,483h-0.791c0,0-1.541-0.667-1.541-1.5s-0.167-1.166,0-2.333C1155,478,1155.963,476,1155.963,476
		s-2.371-1.191,0-1.5s1.205-2.169,2.704-1.501s0.509-0.238,2.504,0.798s1.162-0.298,1.995,1.036
		c0.834,1.334-0.666,0.334,0.834,1.334s0.166-0.166,1.5,1s2,1.334,2.666,3c0.668,1.666,0.668,1.666,0.834,2.833
		s0.333-0.999,0.166,1.167c-0.166,2.166,0.473,1.5,0.07,3s0.598,0.667-0.402,1.5s0.332,0.334-1.834,1s-2.834-0.666-4,0
		s-2,0.192-2,0.192s-0.666-0.525-1-1.192s-0.5-0.5-0.666-1.667c-0.168-1.167-0.168-1.167-0.168-1.167l-0.832-1.465L1157.166,483z"/>
	<path fill="#7A1C58" d="M1159.834,450.333c0.666,0.167,0.131,0.001,2.231,1.334s0.935,0.5,2.101,1.333
		c1.168,0.833,0.334,1.167,2,0.667c1.668-0.5,1.576-0.933,3.205-1.55s1.629-1.118,2.129-1.784s0.834-3.166,1-3.666
		s-1.467-2.334-2.566-3.834s-2.268-2.666-2.268-2.666S1167.5,439,1167,437.5s0.68-1.834-0.827-2.667s-1.542-2.5-4.107-2.833
		s-1.565-2.166-4.065-0.833s-3.334,0.332-4,2.166s-1.666,1.667-1.666,3.667s0.166,2.501,0,4.167c-0.168,1.666-1.167,1.666,0,3.166
		c1.166,1.5,1.352,1,2.426,2.167s0.74,0.666,1.906,1.333c1.168,0.667,1.168,0.667,1.168,0.667L1159.834,450.333z"/>
</g>
</svg>
